<svg xmlns="http://www.w3.org/2000/svg" xmlns:xlink="http://www.w3.org/1999/xlink" width="40" zoomAndPan="magnify" viewBox="0 0 30 30.000001" height="40" preserveAspectRatio="xMidYMid meet" version="1.0"><defs><clipPath id="99198fb654"><path d="M 11 24 L 15 24 L 15 29.03125 L 11 29.03125 Z M 11 24 " clip-rule="nonzero"/></clipPath><clipPath id="c73e85f442"><path d="M 14.03125 24.195312 C 13.765625 24.195312 13.546875 24.410156 13.546875 24.675781 L 13.546875 25.75 L 11.980469 26.144531 C 11.765625 26.195312 11.613281 26.390625 11.613281 26.613281 L 11.613281 28.546875 C 11.613281 28.816406 11.828125 29.03125 12.097656 29.03125 C 12.363281 29.03125 12.582031 28.816406 12.582031 28.546875 L 12.582031 26.992188 L 14.148438 26.597656 C 14.363281 26.542969 14.515625 26.351562 14.515625 26.128906 L 14.515625 24.675781 C 14.515625 24.410156 14.300781 24.195312 14.03125 24.195312 Z M 14.03125 24.195312 " clip-rule="nonzero"/></clipPath><clipPath id="2daade0a46"><path d="M 15 22 L 20 22 L 20 29.03125 L 15 29.03125 Z M 15 22 " clip-rule="nonzero"/></clipPath><clipPath id="d593582fe5"><path d="M 19.570312 26.664062 L 17.902344 25.828125 L 17.902344 25.070312 C 18.464844 24.871094 18.871094 24.339844 18.871094 23.710938 C 18.871094 22.910156 18.21875 22.257812 17.417969 22.257812 C 16.617188 22.257812 15.96875 22.910156 15.96875 23.710938 C 15.96875 24.339844 16.375 24.871094 16.933594 25.070312 L 16.933594 26.128906 C 16.933594 26.3125 17.039062 26.480469 17.203125 26.5625 L 18.871094 27.394531 L 18.871094 28.546875 C 18.871094 28.816406 19.085938 29.03125 19.355469 29.03125 C 19.621094 29.03125 19.839844 28.816406 19.839844 28.546875 L 19.839844 27.097656 C 19.839844 26.914062 19.734375 26.746094 19.570312 26.664062 Z M 17.417969 23.226562 C 17.6875 23.226562 17.902344 23.441406 17.902344 23.710938 C 17.902344 23.976562 17.6875 24.195312 17.417969 24.195312 C 17.152344 24.195312 16.933594 23.976562 16.933594 23.710938 C 16.933594 23.441406 17.152344 23.226562 17.417969 23.226562 Z M 17.417969 23.226562 " clip-rule="nonzero"/></clipPath><clipPath id="95bba067c3"><path d="M 15 26 L 17 26 L 17 29.03125 L 15 29.03125 Z M 15 26 " clip-rule="nonzero"/></clipPath><clipPath id="3c691c33da"><path d="M 15.96875 26.613281 C 15.699219 26.613281 15.484375 26.828125 15.484375 27.097656 L 15.484375 28.546875 C 15.484375 28.816406 15.699219 29.03125 15.96875 29.03125 C 16.234375 29.03125 16.453125 28.816406 16.453125 28.546875 L 16.453125 27.097656 C 16.453125 26.828125 16.234375 26.613281 15.96875 26.613281 Z M 15.96875 26.613281 " clip-rule="nonzero"/></clipPath><clipPath id="84f648cb69"><path d="M 0.484375 0 L 29.515625 0 L 29.515625 29.03125 L 0.484375 29.03125 Z M 0.484375 0 " clip-rule="nonzero"/></clipPath><clipPath id="b8fc55397d"><path d="M 28.066406 13.066406 C 27.433594 13.066406 26.902344 13.46875 26.703125 14.03125 L 24.421875 14.03125 L 22.144531 11.304688 C 22.054688 11.191406 21.917969 11.128906 21.773438 11.128906 L 19.839844 11.128906 L 19.839844 9.675781 L 22.542969 9.675781 L 23.851562 10.988281 C 23.941406 11.078125 24.066406 11.128906 24.195312 11.128906 L 25.734375 11.128906 C 25.933594 11.691406 26.464844 12.097656 27.097656 12.097656 C 27.898438 12.097656 28.546875 11.445312 28.546875 10.644531 C 28.546875 9.84375 27.898438 9.195312 27.097656 9.195312 C 26.464844 9.195312 25.933594 9.597656 25.734375 10.160156 L 24.394531 10.160156 L 23.085938 8.851562 C 22.992188 8.761719 22.871094 8.710938 22.742188 8.710938 L 19.839844 8.710938 L 19.839844 7.257812 L 21.773438 7.257812 C 21.9375 7.257812 22.085938 7.175781 22.175781 7.042969 L 22.816406 6.082031 L 24.335938 7.601562 C 24.425781 7.691406 24.546875 7.742188 24.675781 7.742188 L 28.546875 7.742188 C 28.816406 7.742188 29.03125 7.523438 29.03125 7.257812 C 29.03125 6.992188 28.816406 6.773438 28.546875 6.773438 L 24.878906 6.773438 L 23.363281 5.261719 L 23.96875 4.355469 L 24.765625 4.355469 C 24.964844 4.917969 25.5 5.324219 26.128906 5.324219 C 26.929688 5.324219 27.582031 4.671875 27.582031 3.871094 C 27.582031 3.070312 26.929688 2.417969 26.128906 2.417969 C 25.5 2.417969 24.964844 2.824219 24.765625 3.386719 L 23.710938 3.386719 C 23.546875 3.386719 23.398438 3.46875 23.308594 3.601562 L 21.515625 6.289062 L 19.839844 6.289062 L 19.839844 5.804688 C 19.839844 5.539062 19.621094 5.324219 19.355469 5.324219 L 18.386719 5.324219 L 18.386719 4.070312 L 19.695312 2.761719 C 19.789062 2.671875 19.839844 2.546875 19.839844 2.417969 L 19.839844 0.484375 C 19.839844 0.214844 19.621094 0 19.355469 0 C 19.085938 0 18.871094 0.214844 18.871094 0.484375 L 18.871094 2.21875 L 17.5625 3.527344 C 17.46875 3.621094 17.417969 3.742188 17.417969 3.871094 L 17.417969 5.324219 L 16.453125 5.324219 L 16.453125 3.386719 C 16.453125 3.238281 16.386719 3.101562 16.269531 3.007812 L 13.851562 1.074219 C 13.765625 1.003906 13.660156 0.96875 13.546875 0.96875 L 8.621094 0.96875 C 8.421875 0.40625 7.886719 0 7.257812 0 C 6.457031 0 5.804688 0.652344 5.804688 1.453125 C 5.804688 2.25 6.457031 2.902344 7.257812 2.902344 C 7.886719 2.902344 8.421875 2.496094 8.621094 1.933594 L 9.960938 1.933594 L 8.027344 3.871094 L 4.839844 3.871094 C 4.570312 3.871094 4.355469 4.085938 4.355469 4.355469 C 4.355469 4.621094 4.570312 4.839844 4.839844 4.839844 L 8.226562 4.839844 C 8.355469 4.839844 8.476562 4.789062 8.566406 4.695312 L 11.328125 1.933594 L 13.378906 1.933594 L 15.484375 3.621094 L 15.484375 5.324219 L 14.515625 5.324219 L 14.515625 4.355469 C 14.515625 4.085938 14.300781 3.871094 14.03125 3.871094 C 10.878906 3.871094 8.195312 5.894531 7.199219 8.710938 L 5.671875 8.710938 L 5.296875 7.589844 C 5.230469 7.390625 5.046875 7.257812 4.839844 7.257812 L 2.902344 7.257812 C 2.636719 7.257812 2.417969 7.476562 2.417969 7.742188 C 2.417969 8.007812 2.636719 8.226562 2.902344 8.226562 L 4.488281 8.226562 L 4.863281 9.347656 C 4.929688 9.542969 5.113281 9.675781 5.324219 9.675781 L 6.921875 9.675781 C 6.839844 10.066406 6.800781 10.46875 6.785156 10.878906 L 5.160156 12.097656 L 3.296875 12.097656 C 3.097656 11.535156 2.566406 11.128906 1.933594 11.128906 C 1.136719 11.128906 0.484375 11.78125 0.484375 12.582031 C 0.484375 13.382812 1.136719 14.03125 1.933594 14.03125 C 2.566406 14.03125 3.097656 13.625 3.296875 13.066406 L 5.324219 13.066406 C 5.425781 13.066406 5.527344 13.03125 5.613281 12.96875 L 7.085938 11.863281 L 7.207031 12.109375 L 5.363281 16.253906 C 5.308594 16.378906 5.308594 16.523438 5.363281 16.648438 C 5.417969 16.773438 5.523438 16.867188 5.652344 16.910156 L 6.773438 17.285156 L 6.773438 17.417969 C 6.773438 17.660156 6.796875 17.898438 6.828125 18.132812 L 5.121094 19.839844 L 3.296875 19.839844 C 3.097656 19.277344 2.566406 18.871094 1.933594 18.871094 C 1.136719 18.871094 0.484375 19.523438 0.484375 20.324219 C 0.484375 21.121094 1.136719 21.773438 1.933594 21.773438 C 2.566406 21.773438 3.097656 21.367188 3.296875 20.804688 L 5.324219 20.804688 C 5.453125 20.804688 5.574219 20.753906 5.664062 20.664062 L 7.097656 19.230469 C 7.269531 19.707031 7.507812 20.148438 7.800781 20.546875 L 4.011719 24.335938 C 3.921875 24.425781 3.871094 24.550781 3.871094 24.675781 L 3.871094 26.21875 C 3.308594 26.417969 2.902344 26.949219 2.902344 27.582031 C 2.902344 28.382812 3.554688 29.03125 4.355469 29.03125 C 5.15625 29.03125 5.804688 28.382812 5.804688 27.582031 C 5.804688 26.949219 5.402344 26.417969 4.839844 26.21875 L 4.839844 24.878906 L 8.441406 21.277344 C 9.285156 22.078125 10.386719 22.605469 11.613281 22.71875 L 11.613281 22.742188 C 11.613281 23.71875 11.027344 24.585938 10.121094 24.945312 L 8.875 25.445312 C 7.597656 25.957031 6.773438 27.171875 6.773438 28.546875 C 6.773438 28.816406 6.992188 29.03125 7.257812 29.03125 C 7.527344 29.03125 7.742188 28.816406 7.742188 28.546875 C 7.742188 27.570312 8.328125 26.707031 9.234375 26.34375 L 10.480469 25.84375 C 11.757812 25.335938 12.582031 24.117188 12.582031 22.742188 L 12.582031 22.71875 C 15.332031 22.574219 17.765625 21.21875 19.355469 19.171875 L 19.355469 23.054688 C 19.355469 24.238281 20.011719 25.304688 21.074219 25.835938 C 21.804688 26.199219 22.257812 26.9375 22.257812 27.75 L 22.257812 28.546875 C 22.257812 28.816406 22.472656 29.03125 22.742188 29.03125 C 23.007812 29.03125 23.226562 28.816406 23.226562 28.546875 L 23.226562 27.75 C 23.226562 26.566406 22.566406 25.5 21.507812 24.96875 C 20.777344 24.605469 20.324219 23.871094 20.324219 23.054688 L 20.324219 17.628906 C 20.464844 17.34375 20.59375 17.046875 20.707031 16.742188 L 21.773438 17.644531 L 21.773438 20.324219 C 21.773438 20.519531 21.894531 20.699219 22.078125 20.773438 L 24.195312 21.617188 L 24.195312 22.832031 C 23.632812 23.03125 23.226562 23.5625 23.226562 24.195312 C 23.226562 24.992188 23.878906 25.644531 24.675781 25.644531 C 25.476562 25.644531 26.128906 24.992188 26.128906 24.195312 C 26.128906 23.5625 25.722656 23.03125 25.160156 22.832031 L 25.160156 21.289062 C 25.160156 21.09375 25.039062 20.914062 24.855469 20.839844 L 22.742188 19.996094 L 22.742188 17.417969 C 22.742188 17.277344 22.679688 17.140625 22.570312 17.050781 L 21.015625 15.738281 C 21.1875 15.035156 21.289062 14.304688 21.289062 13.546875 C 21.289062 13.28125 21.074219 13.066406 20.804688 13.066406 L 19.839844 13.066406 L 19.839844 12.097656 L 21.546875 12.097656 L 23.820312 14.824219 C 23.914062 14.9375 24.050781 15 24.195312 15 L 26.703125 15 C 26.902344 15.5625 27.433594 15.96875 28.066406 15.96875 C 28.863281 15.96875 29.515625 15.316406 29.515625 14.515625 C 29.515625 13.714844 28.863281 13.066406 28.066406 13.066406 Z M 27.097656 10.160156 C 27.363281 10.160156 27.582031 10.378906 27.582031 10.644531 C 27.582031 10.910156 27.363281 11.128906 27.097656 11.128906 C 26.828125 11.128906 26.613281 10.910156 26.613281 10.644531 C 26.613281 10.378906 26.828125 10.160156 27.097656 10.160156 Z M 26.128906 3.386719 C 26.394531 3.386719 26.613281 3.605469 26.613281 3.871094 C 26.613281 4.136719 26.394531 4.355469 26.128906 4.355469 C 25.863281 4.355469 25.644531 4.136719 25.644531 3.871094 C 25.644531 3.605469 25.863281 3.386719 26.128906 3.386719 Z M 7.257812 1.933594 C 6.992188 1.933594 6.773438 1.71875 6.773438 1.453125 C 6.773438 1.183594 6.992188 0.96875 7.257812 0.96875 C 7.523438 0.96875 7.742188 1.183594 7.742188 1.453125 C 7.742188 1.71875 7.523438 1.933594 7.257812 1.933594 Z M 1.933594 13.066406 C 1.667969 13.066406 1.453125 12.847656 1.453125 12.582031 C 1.453125 12.3125 1.667969 12.097656 1.933594 12.097656 C 2.203125 12.097656 2.417969 12.3125 2.417969 12.582031 C 2.417969 12.847656 2.203125 13.066406 1.933594 13.066406 Z M 1.933594 20.804688 C 1.667969 20.804688 1.453125 20.589844 1.453125 20.324219 C 1.453125 20.054688 1.667969 19.839844 1.933594 19.839844 C 2.203125 19.839844 2.417969 20.054688 2.417969 20.324219 C 2.417969 20.589844 2.203125 20.804688 1.933594 20.804688 Z M 4.355469 28.066406 C 4.085938 28.066406 3.871094 27.847656 3.871094 27.582031 C 3.871094 27.3125 4.085938 27.097656 4.355469 27.097656 C 4.621094 27.097656 4.839844 27.3125 4.839844 27.582031 C 4.839844 27.847656 4.621094 28.066406 4.355469 28.066406 Z M 24.675781 24.675781 C 24.410156 24.675781 24.195312 24.460938 24.195312 24.195312 C 24.195312 23.925781 24.410156 23.710938 24.675781 23.710938 C 24.945312 23.710938 25.160156 23.925781 25.160156 24.195312 C 25.160156 24.460938 24.945312 24.675781 24.675781 24.675781 Z M 14.515625 8.710938 L 16.453125 8.710938 L 16.453125 10.644531 L 14.515625 10.644531 Z M 18.386719 18.832031 L 18.386719 17.417969 C 18.386719 17.152344 18.171875 16.933594 17.902344 16.933594 C 17.636719 16.933594 17.417969 17.152344 17.417969 17.417969 L 17.417969 19.804688 C 16.972656 20.183594 16.488281 20.519531 15.96875 20.800781 L 15.96875 17.417969 C 15.96875 17.210938 15.835938 17.027344 15.636719 16.960938 L 14.515625 16.585938 L 14.515625 15 C 14.515625 14.734375 14.300781 14.515625 14.03125 14.515625 C 13.765625 14.515625 13.546875 14.734375 13.546875 15 L 13.546875 16.933594 C 13.546875 17.144531 13.679688 17.328125 13.878906 17.394531 L 15 17.769531 L 15 21.238281 C 14.535156 21.414062 14.050781 21.550781 13.546875 21.640625 L 13.546875 18.871094 C 13.546875 18.671875 13.429688 18.496094 13.242188 18.421875 L 11.128906 17.574219 L 11.128906 12.976562 C 11.691406 12.773438 12.097656 12.242188 12.097656 11.613281 C 12.097656 10.8125 11.445312 10.160156 10.644531 10.160156 C 9.84375 10.160156 9.195312 10.8125 9.195312 11.613281 C 9.195312 12.242188 9.597656 12.773438 10.160156 12.976562 L 10.160156 17.902344 C 10.160156 18.101562 10.28125 18.277344 10.464844 18.351562 L 12.582031 19.199219 L 12.582031 21.75 C 12.417969 21.761719 12.261719 21.773438 12.097656 21.773438 C 9.695312 21.773438 7.742188 19.820312 7.742188 17.417969 L 7.742188 16.933594 C 7.742188 16.726562 7.609375 16.542969 7.410156 16.476562 L 6.464844 16.160156 L 8.183594 12.292969 C 8.242188 12.160156 8.238281 12.007812 8.175781 11.878906 L 7.742188 11.015625 C 7.800781 7.761719 10.339844 5.101562 13.546875 4.855469 L 13.546875 11.128906 C 13.546875 11.273438 13.613281 11.410156 13.722656 11.5 L 16.625 13.921875 C 16.710938 13.992188 16.820312 14.03125 16.933594 14.03125 L 20.308594 14.03125 C 20.203125 15.855469 19.496094 17.519531 18.386719 18.832031 Z M 10.160156 11.613281 C 10.160156 11.347656 10.378906 11.128906 10.644531 11.128906 C 10.914062 11.128906 11.128906 11.347656 11.128906 11.613281 C 11.128906 11.878906 10.914062 12.097656 10.644531 12.097656 C 10.378906 12.097656 10.160156 11.878906 10.160156 11.613281 Z M 17.109375 13.066406 L 15.367188 11.613281 L 16.933594 11.613281 C 17.203125 11.613281 17.417969 11.394531 17.417969 11.128906 L 17.417969 8.226562 C 17.417969 7.957031 17.203125 7.742188 16.933594 7.742188 L 14.515625 7.742188 L 14.515625 6.289062 L 18.871094 6.289062 L 18.871094 13.066406 Z M 28.066406 15 C 27.796875 15 27.582031 14.78125 27.582031 14.515625 C 27.582031 14.25 27.796875 14.03125 28.066406 14.03125 C 28.332031 14.03125 28.546875 14.25 28.546875 14.515625 C 28.546875 14.78125 28.332031 15 28.066406 15 Z M 28.066406 15 " clip-rule="nonzero"/></clipPath></defs><g clip-path="url(#99198fb654)"><g clip-path="url(#c73e85f442)"><path fill="#90278e" d="M 11.613281 24.195312 L 11.613281 29.03125 L 14.515625 29.03125 L 14.515625 24.195312 Z M 11.613281 24.195312 " fill-opacity="1" fill-rule="nonzero"/></g></g><g clip-path="url(#2daade0a46)"><g clip-path="url(#d593582fe5)"><path fill="#90278e" d="M 15.96875 22.257812 L 15.96875 29.03125 L 19.839844 29.03125 L 19.839844 22.257812 Z M 15.96875 22.257812 " fill-opacity="1" fill-rule="nonzero"/></g></g><g clip-path="url(#95bba067c3)"><g clip-path="url(#3c691c33da)"><path fill="#90278e" d="M 15.484375 26.613281 L 15.484375 29.03125 L 16.453125 29.03125 L 16.453125 26.613281 Z M 15.484375 26.613281 " fill-opacity="1" fill-rule="nonzero"/></g></g><g clip-path="url(#84f648cb69)"><g clip-path="url(#b8fc55397d)"><path fill="#90278e" d="M 0.484375 0 L 0.484375 29.03125 L 29.515625 29.03125 L 29.515625 0 Z M 0.484375 0 " fill-opacity="1" fill-rule="nonzero"/></g></g></svg>